<svg xmlns="http://www.w3.org/2000/svg" viewBox="0 0 512 512" role="img" aria-labelledby="title desc">
  <title id="title">Fanout Live logo</title>
  <desc id="desc">A live stream source branching out to three broadcast destinations.</desc>
  <defs>
    <linearGradient id="bg" x1="86" x2="426" y1="54" y2="458" gradientUnits="userSpaceOnUse">
      <stop stop-color="#20252b"/>
      <stop offset="1" stop-color="#101214"/>
    </linearGradient>
    <linearGradient id="accent" x1="132" x2="394" y1="130" y2="382" gradientUnits="userSpaceOnUse">
      <stop stop-color="#77b7ff"/>
      <stop offset=".48" stop-color="#39c27f"/>
      <stop offset="1" stop-color="#2fa36b"/>
    </linearGradient>
    <filter id="soft-shadow" x="-20%" y="-20%" width="140%" height="140%">
      <feDropShadow dx="0" dy="18" stdDeviation="18" flood-color="#000" flood-opacity=".32"/>
    </filter>
  </defs>
  <rect width="512" height="512" rx="96" fill="url(#bg)"/>
  <path d="M140 256c0-64 52-116 116-116s116 52 116 116-52 116-116 116-116-52-116-116Z" fill="#181b1f" stroke="#313840" stroke-width="18"/>
  <g fill="none" stroke="url(#accent)" stroke-linecap="round" stroke-linejoin="round" stroke-width="34" filter="url(#soft-shadow)">
    <path d="M116 256h132"/>
    <path d="M264 256h60c42 0 56-32 76-70"/>
    <path d="M264 256h150"/>
    <path d="M264 256h60c42 0 56 32 76 70"/>
  </g>
  <circle cx="112" cy="256" r="38" fill="#101214" stroke="#39c27f" stroke-width="20"/>
  <g fill="#edf2f5">
    <path d="M224 198c0-11 12-18 22-12l90 52c10 6 10 20 0 26l-90 52c-10 6-22-1-22-12V198Z"/>
    <circle cx="410" cy="184" r="28"/>
    <circle cx="426" cy="256" r="28"/>
    <circle cx="410" cy="328" r="28"/>
  </g>
</svg>
